<?xml version="1.0" encoding="UTF-8"?>
<svg width="232px" height="232px" viewBox="0 0 232 232" version="1.1" xmlns="http://www.w3.org/2000/svg" xmlns:xlink="http://www.w3.org/1999/xlink">
    <defs>
        <linearGradient x1="99.8347519%" y1="50.0044809%" x2="-0.079160354%" y2="50.0044809%" id="linearGradient-1">
            <stop stop-color="#15AAE2" offset="0%"></stop>
            <stop stop-color="#0F4C8A" offset="100%"></stop>
        </linearGradient>
        <linearGradient x1="49.9842856%" y1="99.8921424%" x2="49.9842856%" y2="-0.0217698543%" id="linearGradient-2">
            <stop stop-color="#15AAE2" offset="0%"></stop>
            <stop stop-color="#0F4C8A" offset="100%"></stop>
        </linearGradient>
        <linearGradient x1="49.9902367%" y1="97.1453027%" x2="49.9902367%" y2="3.7559499%" id="linearGradient-3">
            <stop stop-color="#EC2227" offset="0%"></stop>
            <stop stop-color="#FDD800" offset="100%"></stop>
        </linearGradient>
        <linearGradient x1="1.75542797%" y1="50.0430678%" x2="95.6984342%" y2="50.0430678%" id="linearGradient-4">
            <stop stop-color="#B3BE35" offset="0%"></stop>
            <stop stop-color="#098843" offset="100%"></stop>
        </linearGradient>
    </defs>
    <g id="Page-1" stroke="none" stroke-width="1" fill="none" fill-rule="evenodd">
        <g id="Навигация" transform="translate(-1125.000000, -366.000000)">
            <g id="1" transform="translate(1125.000000, 366.000000)">
                <g id="Group" transform="translate(0.000000, 27.000000)" fill="#ffffff">
                    <path d="M0,38.2 L0,1.1 L19.8,1.1 C28.5,1.1 33.2,6.9 33.2,13.8 C33.2,20.7 28.5,26.5 19.8,26.5 L11.2,26.5 L11.2,38.2 L0,38.2 Z M21.8,13.8 C21.8,11.8 20.3,10.9 18.4,10.9 L11.3,10.9 L11.3,16.7 L18.4,16.7 C20.3,16.7 21.8,15.8 21.8,13.8 Z" id="Shape" fill-rule="nonzero"></path>
                    <path d="M46,19.7 C46,8.2 54.8,0.5 66.4,0.5 C76.1,0.5 81,6.2 83.3,11.3 L73.6,15.8 C72.7,12.9 69.8,10.4 66.4,10.4 C61,10.4 57.4,14.5 57.4,19.7 C57.4,24.9 61,29 66.4,29 C69.7,29 72.6,26.5 73.6,23.6 L83.3,28.1 C81.1,33.1 76.2,39 66.4,39 C54.8,38.9 46,31.1 46,19.7 Z" id="Path"></path>
                    <polygon id="Path" points="149.7 145.2 149.7 108.1 161 108.1 161 127.9 173.9 108.1 185.5 108.1 185.5 145.2 174.3 145.2 174.3 124.2 160.6 145.2"></polygon>
                    <path d="M200.1,135 L209.8,130.5 C210.7,133.4 213.6,135.9 217.4,135.9 C221.2,135.9 223.8,134.1 225,131.3 L212.3,131.3 L212.3,121.5 L224.8,121.5 C223.5,119 221.1,117.3 217.4,117.3 C213.6,117.3 210.7,119.8 209.8,122.7 L200.1,118.2 C202.3,113.1 207.2,107.4 217,107.4 C228.6,107.4 237.4,115.1 237.4,126.6 C237.4,138 228.6,145.8 217,145.8 C207.2,145.9 202.3,140 200.1,135 Z" id="Path"></path>
                    <polygon id="Path" points="274.2 145.2 265.8 132.1 263.7 134.9 263.7 145.2 252.5 145.2 252.5 108.1 263.7 108.1 263.7 122 273.4 108.1 287.1 108.1 273.1 125.4 287.7 145.3 274.2 145.3"></polygon>
                </g>
                <polygon id="Path" fill="url(#linearGradient-1)" points="115.2 0 149.1 61.9 115.2 95.8"></polygon>
                <polygon id="Path" fill="url(#linearGradient-2)" points="19.4 95.8 81.4 129.7 115.2 95.8"></polygon>
                <polygon id="Path" fill="url(#linearGradient-3)" points="115.2 208.9 81.4 147 115.2 113.1"></polygon>
                <polygon id="Path" fill="url(#linearGradient-4)" points="228.3 95.8 166.4 61.9 132.5 95.8"></polygon>
            </g>
        </g>
    </g>
</svg>